<svg width="63" height="62" viewBox="0 0 63 62" fill="none" xmlns="http://www.w3.org/2000/svg">
<g filter="url(#filter0_di_422_34)">
<rect x="3.33325" y="2" width="56" height="56" rx="8" fill="white"/>
<rect x="3.83325" y="2.5" width="55" height="55" rx="7.5" stroke="#2F2B43" stroke-opacity="0.1"/>
<g clip-path="url(#clip0_422_34)">
<path d="M29.4579 18.8572V24.5606" stroke="black" stroke-width="2" stroke-linecap="round" stroke-linejoin="round"/>
<path d="M38.727 30V24.5605H20.1904V35.9674C20.1904 36.1547 20.2273 36.3402 20.299 36.5132C20.3707 36.6863 20.4757 36.8435 20.6082 36.9759C20.7406 37.1084 20.8979 37.2134 21.0709 37.2851C21.2439 37.3568 21.4294 37.3937 21.6167 37.3937H29.619" stroke="black" stroke-width="2" stroke-linecap="round" stroke-linejoin="round"/>
<path d="M20.1904 24.5606L22.3299 20.4395C22.5604 19.9751 22.9132 19.5824 23.3502 19.3036C23.7873 19.0248 24.2922 18.8704 24.8104 18.8572H34.107C34.6376 18.8573 35.1576 19.0054 35.6085 19.285C36.0595 19.5645 36.4235 19.9643 36.6596 20.4395L38.727 24.5606" stroke="black" stroke-width="2" stroke-linecap="round" stroke-linejoin="round"/>
<path d="M33.0476 35.1428H39.4762C41.1322 35.1428 42.4762 36.4868 42.4762 38.1428C42.4762 38.9385 42.1601 39.7015 41.5975 40.2641C41.0349 40.8268 40.2718 41.1428 39.4762 41.1428H33.9048" stroke="black" stroke-width="2" stroke-linecap="round" stroke-linejoin="round"/>
<path d="M35.619 37.7144L33.0476 35.143L35.619 32.5715" stroke="black" stroke-width="2" stroke-linecap="round" stroke-linejoin="round"/>
</g>
</g>
<defs>
<filter id="filter0_di_422_34" x="0.333252" y="0" width="62" height="62" filterUnits="userSpaceOnUse" color-interpolation-filters="sRGB">
<feFlood flood-opacity="0" result="BackgroundImageFix"/>
<feColorMatrix in="SourceAlpha" type="matrix" values="0 0 0 0 0 0 0 0 0 0 0 0 0 0 0 0 0 0 127 0" result="hardAlpha"/>
<feOffset dy="1"/>
<feGaussianBlur stdDeviation="1.5"/>
<feComposite in2="hardAlpha" operator="out"/>
<feColorMatrix type="matrix" values="0 0 0 0 0.184314 0 0 0 0 0.168627 0 0 0 0 0.262745 0 0 0 0.1 0"/>
<feBlend mode="normal" in2="BackgroundImageFix" result="effect1_dropShadow_422_34"/>
<feBlend mode="normal" in="SourceGraphic" in2="effect1_dropShadow_422_34" result="shape"/>
<feColorMatrix in="SourceAlpha" type="matrix" values="0 0 0 0 0 0 0 0 0 0 0 0 0 0 0 0 0 0 127 0" result="hardAlpha"/>
<feOffset dy="-1"/>
<feComposite in2="hardAlpha" operator="arithmetic" k2="-1" k3="1"/>
<feColorMatrix type="matrix" values="0 0 0 0 0.184314 0 0 0 0 0.168627 0 0 0 0 0.262745 0 0 0 0.1 0"/>
<feBlend mode="normal" in2="shape" result="effect2_innerShadow_422_34"/>
</filter>
<clipPath id="clip0_422_34">
<rect width="24" height="24" fill="white" transform="translate(19.3333 18)"/>
</clipPath>
</defs>
</svg>
