<svg width="63" height="62" viewBox="0 0 63 62" fill="none" xmlns="http://www.w3.org/2000/svg">
<g filter="url(#filter0_di_422_24)">
<rect x="3.66663" y="2" width="56" height="56" rx="8" fill="white"/>
<rect x="4.16663" y="2.5" width="55" height="55" rx="7.5" stroke="#2F2B43" stroke-opacity="0.1"/>
<path d="M29.4579 18.8572V24.5606" stroke="black" stroke-width="2" stroke-linecap="round" stroke-linejoin="round"/>
<path d="M38.7271 26.9468V24.5605H20.1905V35.9674C20.1905 36.1547 20.2274 36.3402 20.2991 36.5132C20.3707 36.6863 20.4758 36.8435 20.6082 36.9759C20.7407 37.1084 20.8979 37.2134 21.071 37.2851C21.244 37.3568 21.4295 37.3937 21.6168 37.3937H27.8516" stroke="black" stroke-width="2" stroke-linecap="round" stroke-linejoin="round"/>
<path d="M20.1905 24.5606L22.3299 20.4395C22.5604 19.9751 22.9132 19.5824 23.3503 19.3036C23.7874 19.0248 24.2922 18.8704 24.8105 18.8572H34.1071C34.6376 18.8573 35.1576 19.0054 35.6086 19.285C36.0595 19.5645 36.4235 19.9643 36.6596 20.4395L38.7271 24.5606" stroke="black" stroke-width="2" stroke-linecap="round" stroke-linejoin="round"/>
<path d="M37.3333 42C38.9246 42 40.4507 41.3679 41.576 40.2426C42.7012 39.1174 43.3333 37.5913 43.3333 36C43.3333 34.4087 42.7012 32.8826 41.576 31.7574C40.4507 30.6321 38.9246 30 37.3333 30C35.742 30 34.2159 30.6321 33.0907 31.7574C31.9655 32.8826 31.3333 34.4087 31.3333 36C31.3333 37.5913 31.9655 39.1174 33.0907 40.2426C34.2159 41.3679 35.742 42 37.3333 42Z" stroke="black" stroke-width="2" stroke-linecap="round" stroke-linejoin="round"/>
<path d="M39.7333 33.6001L37.3333 36.0001" stroke="black" stroke-width="2" stroke-linecap="round" stroke-linejoin="round"/>
</g>
<defs>
<filter id="filter0_di_422_24" x="0.666626" y="0" width="62" height="62" filterUnits="userSpaceOnUse" color-interpolation-filters="sRGB">
<feFlood flood-opacity="0" result="BackgroundImageFix"/>
<feColorMatrix in="SourceAlpha" type="matrix" values="0 0 0 0 0 0 0 0 0 0 0 0 0 0 0 0 0 0 127 0" result="hardAlpha"/>
<feOffset dy="1"/>
<feGaussianBlur stdDeviation="1.5"/>
<feComposite in2="hardAlpha" operator="out"/>
<feColorMatrix type="matrix" values="0 0 0 0 0.184314 0 0 0 0 0.168627 0 0 0 0 0.262745 0 0 0 0.1 0"/>
<feBlend mode="normal" in2="BackgroundImageFix" result="effect1_dropShadow_422_24"/>
<feBlend mode="normal" in="SourceGraphic" in2="effect1_dropShadow_422_24" result="shape"/>
<feColorMatrix in="SourceAlpha" type="matrix" values="0 0 0 0 0 0 0 0 0 0 0 0 0 0 0 0 0 0 127 0" result="hardAlpha"/>
<feOffset dy="-1"/>
<feComposite in2="hardAlpha" operator="arithmetic" k2="-1" k3="1"/>
<feColorMatrix type="matrix" values="0 0 0 0 0.184314 0 0 0 0 0.168627 0 0 0 0 0.262745 0 0 0 0.1 0"/>
<feBlend mode="normal" in2="shape" result="effect2_innerShadow_422_24"/>
</filter>
</defs>
</svg>
