<svg width="21" height="20" viewBox="0 0 21 20" fill="none" xmlns="http://www.w3.org/2000/svg">
<path d="M16.125 5V13.125C16.125 13.2908 16.0591 13.4497 15.9419 13.5669C15.8247 13.6842 15.6657 13.75 15.5 13.75C15.3342 13.75 15.1753 13.6842 15.058 13.5669C14.9408 13.4497 14.875 13.2908 14.875 13.125V6.50859L5.94217 15.4422C5.82489 15.5595 5.66583 15.6253 5.49998 15.6253C5.33413 15.6253 5.17507 15.5595 5.05779 15.4422C4.94052 15.3249 4.87463 15.1659 4.87463 15C4.87463 14.8341 4.94052 14.6751 5.05779 14.5578L13.9914 5.625H7.37498C7.20922 5.625 7.05025 5.55915 6.93304 5.44194C6.81583 5.32473 6.74998 5.16576 6.74998 5C6.74998 4.83424 6.81583 4.67527 6.93304 4.55806C7.05025 4.44085 7.20922 4.375 7.37498 4.375H15.5C15.6657 4.375 15.8247 4.44085 15.9419 4.55806C16.0591 4.67527 16.125 4.83424 16.125 5Z" fill="black"/>
</svg>
